<svg xmlns="http://www.w3.org/2000/svg" width="39.934" height="35.497" viewBox="0 0 39.934 35.497">
  <path id="solid_cloud-sun-rain" data-name="solid cloud-sun-rain" d="M35.393,15.634a5.544,5.544,0,0,0-5.442-4.541,5.476,5.476,0,0,0-2.378.555A6.643,6.643,0,0,0,15.53,15.53c0,.035.014.076.014.111a5.545,5.545,0,0,0,1.1,10.982H34.388a5.54,5.54,0,0,0,1.005-10.989ZM8.6,18.019a6.639,6.639,0,0,1,8.784-9.928,8.813,8.813,0,0,1,4.8-1.435c.049,0,.09.014.139.014l.617-1.851A.9.9,0,0,0,21.8,3.681l-5.221,1.74L14.116.5A.9.9,0,0,0,12.5.5L10.039,5.422,4.818,3.681A.9.9,0,0,0,3.681,4.825l1.74,5.221L.5,12.507a.9.9,0,0,0,0,1.615l4.922,2.461L3.681,21.8a.906.906,0,0,0,1.144,1.144l4.1-1.366c-.014-.166-.049-.326-.049-.5a7.662,7.662,0,0,1,.43-2.489,6.394,6.394,0,0,1-.707-.575ZM13.443,14a8.841,8.841,0,0,1,2.212-4.437,4.377,4.377,0,0,0-2.343-.686,4.441,4.441,0,0,0-4.437,4.437,4.4,4.4,0,0,0,1.463,3.265A7.775,7.775,0,0,1,13.443,14Zm22.92,14.989a1.107,1.107,0,0,0-1.511.416L32.315,33.84a1.105,1.105,0,0,0,.416,1.511,1.106,1.106,0,0,0,1.511-.416L36.779,30.5A1.111,1.111,0,0,0,36.363,28.987Zm-6.656,0A1.107,1.107,0,0,0,28.2,29.4L25.659,33.84a1.105,1.105,0,0,0,.416,1.511,1.106,1.106,0,0,0,1.511-.416L30.124,30.5A1.111,1.111,0,0,0,29.708,28.987Zm-6.656,0a1.107,1.107,0,0,0-1.511.416L19,33.84a1.105,1.105,0,0,0,.416,1.511,1.106,1.106,0,0,0,1.511-.416L23.468,30.5A1.111,1.111,0,0,0,23.052,28.987Zm-6.656,0a1.107,1.107,0,0,0-1.511.416L12.348,33.84a1.105,1.105,0,0,0,.416,1.511,1.106,1.106,0,0,0,1.511-.416L16.812,30.5A1.111,1.111,0,0,0,16.4,28.987Z" transform="translate(0 0)" fill="#fff"/>
</svg>
