<svg xmlns="http://www.w3.org/2000/svg" width="39.992" height="32" viewBox="0 0 39.992 32">
  <path id="solid_cloud-sun" data-name="solid cloud-sun" d="M35.943,20.352a3.369,3.369,0,0,0,.05-.35,3.987,3.987,0,0,0-6.13-3.374A6.99,6.99,0,0,0,16.5,19.5c0,.187.044.362.056.544A5.985,5.985,0,0,0,17,32h17a5.985,5.985,0,0,0,1.95-11.648ZM9.048,18.94A7,7,0,1,1,20.34,11.092a8.967,8.967,0,0,1,1.918-.469L24.12,5.068a.948.948,0,0,0-1.2-1.2L17.434,5.7,14.841.525a.945.945,0,0,0-1.693,0L10.56,5.7,5.068,3.868a.952.952,0,0,0-1.2,1.2L5.7,10.554.525,13.147a.945.945,0,0,0,0,1.693L5.7,17.428,3.868,22.914a.948.948,0,0,0,1.2,1.2l4.755-1.581A8.076,8.076,0,0,1,11.3,20.44a6.89,6.89,0,0,1-2.25-1.5Zm-.3-4.949a5.249,5.249,0,0,0,4.243,5.143,8.016,8.016,0,0,1,1.575-.731,9.007,9.007,0,0,1,4.212-6.561,5.246,5.246,0,0,0-10.029,2.15Z" fill="#fff"/>
</svg>
