<svg xmlns="http://www.w3.org/2000/svg" width="32" height="32" viewBox="0 0 32 32">
  <path id="Snowflake" d="M31.414,21.57,29,20.352l1.856-.438a.96.96,0,0,0,.779-1.182l-.277-.932a1.128,1.128,0,0,0-1.351-.682l-5.056,1.188L20.387,16l4.549-2.308,5.056,1.188a1.128,1.128,0,0,0,1.351-.682l.286-.932a.96.96,0,0,0-.779-1.182l-1.856-.438,2.414-1.218a.907.907,0,0,0,.407-1.318L30.707,7.436A1.2,1.2,0,0,0,29.2,7.08L26.787,8.3l.5-1.624a.96.96,0,0,0-.779-1.182l-1.065-.25a1.128,1.128,0,0,0-1.351.682l-1.355,4.424L18.252,12.61V7.768l3.833-3.356a.914.914,0,0,0,0-1.412l-.807-.706a1.262,1.262,0,0,0-1.614,0L18.25,3.526V1a1.079,1.079,0,0,0-1.143-1H14.821a1.079,1.079,0,0,0-1.143,1V3.524L12.27,2.292a1.262,1.262,0,0,0-1.614,0L9.845,3a.914.914,0,0,0,0,1.412L13.68,7.768V12.61L9.186,10.348,7.838,5.924a1.128,1.128,0,0,0-1.351-.682l-1.065.25a.96.96,0,0,0-.779,1.182l.5,1.624L2.731,7.08a1.241,1.241,0,0,0-.838-.1,1.094,1.094,0,0,0-.669.452L.118,9.1a.859.859,0,0,0-.109.733.993.993,0,0,0,.516.585L2.939,11.64l-1.856.438a1.1,1.1,0,0,0-.675.451.865.865,0,0,0-.112.737l.286.934a1.128,1.128,0,0,0,1.351.682L6.99,13.694,11.545,16,6.987,18.3,1.931,17.116A1.128,1.128,0,0,0,.582,17.8L.3,18.732a.96.96,0,0,0,.779,1.182l1.856.438L.518,21.576a.907.907,0,0,0-.407,1.318l1.106,1.674a1.2,1.2,0,0,0,1.506.356l2.414-1.218-.5,1.624a.96.96,0,0,0,.779,1.182l1.065.25a1.128,1.128,0,0,0,1.351-.682l1.353-4.428,4.487-2.262v4.842L9.838,27.588a.914.914,0,0,0,0,1.412l.807.706a1.262,1.262,0,0,0,1.614,0l1.408-1.232V31a1.079,1.079,0,0,0,1.143,1H17.1a1.079,1.079,0,0,0,1.143-1V28.47L19.646,29.7a1.262,1.262,0,0,0,1.614,0L22.067,29a.914.914,0,0,0,0-1.412l-3.815-3.358V19.384l4.485,2.262,1.358,4.424a1.128,1.128,0,0,0,1.351.682l1.065-.25a.96.96,0,0,0,.779-1.182l-.5-1.624L29.2,24.914a1.241,1.241,0,0,0,.838.1,1.094,1.094,0,0,0,.669-.452l1.106-1.674a.851.851,0,0,0,.114-.731.984.984,0,0,0-.516-.583Z" transform="translate(0.033)" fill="#fff"/>
</svg>
